<?xml version="1.0" standalone="no"?>
<!DOCTYPE svg PUBLIC "-//W3C//DTD SVG 20010904//EN"
 "http://www.w3.org/TR/2001/REC-SVG-20010904/DTD/svg10.dtd">
<svg version="1.0" xmlns="http://www.w3.org/2000/svg"
 width="256.000000pt" height="256.000000pt" viewBox="0 0 256.000000 256.000000"
 preserveAspectRatio="xMidYMid meet">

<g transform="translate(0.000000,256.000000) scale(0.100000,-0.100000)"
fill="#000000" stroke="none">
<path d="M1412 1299 c-41 -8 -71 -34 -88 -76 -53 -124 70 -248 187 -188 63 33
88 127 53 201 -25 52 -86 77 -152 63z"/>
<path d="M2128 1303 c-30 -5 -88 -56 -88 -79 0 -11 23 -14 120 -14 67 0 120 4
120 9 0 17 -51 70 -73 76 -36 11 -51 12 -79 8z"/>
</g>
</svg>
