<?xml version="1.0" standalone="no"?>
<!DOCTYPE svg PUBLIC "-//W3C//DTD SVG 20010904//EN"
 "http://www.w3.org/TR/2001/REC-SVG-20010904/DTD/svg10.dtd">
<svg version="1.0" xmlns="http://www.w3.org/2000/svg"
 width="318.000000pt" height="318.000000pt" viewBox="0 0 318.000000 318.000000"
 preserveAspectRatio="xMidYMid meet">
<metadata>
Created by potrace 1.14, written by Peter Selinger 2001-2017
</metadata>
<g transform="translate(0.000000,318.000000) scale(0.100000,-0.100000)"
fill="#000000" stroke="none">
<path d="M160 1550 l0 -400 59 0 58 0 2 148 c3 234 12 267 81 302 46 23 97 26
145 6 59 -25 62 -41 64 -289 l1 -168 55 4 c31 2 58 7 61 10 7 7 6 340 -2 382
-15 87 -49 136 -119 169 -48 23 -188 21 -240 -4 l-40 -19 -3 130 -3 129 -59 0
-60 0 0 -400z"/>
<path d="M1500 1550 l0 -401 63 3 c55 3 62 5 65 25 l3 21 46 -20 c165 -73 351
7 397 171 42 152 -24 314 -150 367 -53 22 -196 19 -244 -6 -22 -11 -42 -20
-45 -20 -3 0 -5 59 -5 130 l0 130 -65 0 -65 0 0 -400z"/>
<path d="M2180 1550 l0 -400 65 0 65 0 0 400 0 400 -65 0 -65 0 0 -400z"/>
<path d="M832 1527 c5 -232 10 -255 68 -314 42 -42 89 -58 180 -58 58 0 84 5
117 23 l42 22 3 -23 c3 -19 10 -22 61 -25 l57 -3 0 296 0 296 -57 -3 -58 -3
-2 -65 c-9 -309 -17 -347 -83 -382 -60 -31 -125 -23 -177 24 -20 19 -22 31
-23 147 -2 110 -7 256 -9 271 -1 3 -29 6 -62 7 l-61 3 4 -213z"/>
<path d="M2597 1725 c-86 -22 -165 -104 -187 -195 -15 -63 -5 -171 21 -222 29
-57 75 -104 125 -128 62 -30 222 -34 274 -6 42 22 110 75 110 84 -1 4 -18 27
-39 51 l-39 44 -18 -22 c-46 -55 -146 -77 -217 -47 -32 13 -97 78 -97 96 0 6
84 10 216 10 l215 0 -2 64 c-4 119 -62 217 -153 257 -52 22 -150 29 -209 14z"/>
</g>
</svg>
